<svg xmlns="http://www.w3.org/2000/svg" fill="currentColor" aria-hidden="true" class="tidal-header-logo--image" viewBox="0 0 160 22"><g><path d="M58.218 21.156H54.11V6.588h-5.312v-3.52h14.73v3.52h-5.311zM75.819 21.155h4.131V3.068H75.82zM152.855 17.586H160v3.57h-11.276V3.067h4.131zM97.712 17.61h2.561c3.447 0 5.745-2.15 5.745-5.572 0-3.25-2.322-5.45-5.647-5.45h-2.66zm-4.01-14.542h6.693c4.938 0 9.852 2.615 9.852 8.995 0 6.013-4.816 9.092-9.607 9.092h-6.937zM125.334 14.375l2.724-7.074 2.699 7.074zm7.841 6.78h4.54l-7.451-18.087h-4.265l-7.524 18.088h4.419l1.333-3.57h7.626z"/></g><path d="m21.178 5.705-5.295 5.294-5.294-5.294L15.883.412zM21.178 16.294l-5.295 5.294-5.294-5.294 5.294-5.295zM10.589 5.705 5.294 11 0 5.705 5.294.412z"/><path d="M31.766 5.705 26.472 11l-5.295-5.295L26.47.412z"/></svg>